<svg width="1200" height="720" viewBox="0 0 1200 720" fill="none" xmlns="http://www.w3.org/2000/svg">
  <rect width="1200" height="720" rx="48" fill="#020617"/>
  <circle cx="930" cy="160" r="180" fill="#38BDF8" fill-opacity="0.25"/>
  <circle cx="209" cy="562" r="210" fill="#14B8A6" fill-opacity="0.2"/>
  <rect x="118" y="96" width="964" height="528" rx="42" fill="#F8FAFC"/>
  <rect x="164" y="145" width="224" height="430" rx="30" fill="#E2E8F0"/>
  <rect x="418" y="145" width="618" height="138" rx="30" fill="#CFFAFE"/>
  <rect x="418" y="308" width="618" height="267" rx="30" fill="#E0F2FE"/>
  <circle cx="228" cy="215" r="46" fill="#0F766E"/>
  <rect x="164" y="302" width="170" height="24" rx="12" fill="#94A3B8"/>
  <rect x="164" y="344" width="140" height="20" rx="10" fill="#CBD5E1"/>
  <rect x="466" y="186" width="212" height="26" rx="13" fill="#0F766E"/>
  <rect x="466" y="227" width="418" height="18" rx="9" fill="#94A3B8"/>
  <rect x="466" y="362" width="520" height="22" rx="11" fill="#0F172A"/>
  <rect x="466" y="405" width="440" height="18" rx="9" fill="#94A3B8"/>
  <rect x="466" y="451" width="244" height="64" rx="20" fill="#F97316"/>
</svg>
